<svg id="visual" viewBox="0 0 900 600" width="900" height="600" xmlns="http://www.w3.org/2000/svg" xmlns:xlink="http://www.w3.org/1999/xlink" version="1.1"><rect x="0" y="0" width="900" height="600" fill="#33002b"></rect><path d="M0 462L21.5 453.5C43 445 86 428 128.8 424.3C171.7 420.7 214.3 430.3 257.2 445C300 459.7 343 479.3 385.8 491.3C428.7 503.3 471.3 507.7 514.2 492C557 476.3 600 440.7 642.8 422.8C685.7 405 728.3 405 771.2 415.8C814 426.7 857 448.3 878.5 459.2L900 470L900 601L878.5 601C857 601 814 601 771.2 601C728.3 601 685.7 601 642.8 601C600 601 557 601 514.2 601C471.3 601 428.7 601 385.8 601C343 601 300 601 257.2 601C214.3 601 171.7 601 128.8 601C86 601 43 601 21.5 601L0 601Z" fill="#ff00b9" stroke-linecap="round" stroke-linejoin="miter"></path></svg>